<?xml version="1.0" standalone="no"?>
<!DOCTYPE svg PUBLIC "-//W3C//DTD SVG 20010904//EN"
 "http://www.w3.org/TR/2001/REC-SVG-20010904/DTD/svg10.dtd">
<svg version="1.0" xmlns="http://www.w3.org/2000/svg"
 width="1706.000000pt" height="960.000000pt" viewBox="0 0 1706.000000 960.000000"
 preserveAspectRatio="xMidYMid meet">

<g transform="translate(0.000000,960.000000) scale(0.100000,-0.100000)"
fill="#000000" stroke="none">
<path d="M2283 5603 c-20 -4 -23 -11 -23 -53 0 -78 -2 -80 -89 -80 l-77 0 -12
-33 c-13 -37 -15 -88 -6 -136 l7 -31 71 0 c39 0 76 -4 83 -8 6 -4 15 -32 19
-62 11 -84 27 -99 100 -100 83 0 96 11 101 91 2 35 10 67 16 71 7 4 45 8 86 8
90 0 100 9 101 96 0 46 -4 63 -15 68 -8 3 -15 12 -15 20 0 12 -17 16 -82 18
l-83 3 -3 58 c-3 51 -6 59 -28 67 -25 10 -108 11 -151 3z"/>
<path d="M3473 5600 c-21 -9 -40 -60 -28 -80 3 -5 1 -19 -5 -30 -9 -17 -21
-20 -84 -20 -88 0 -86 2 -86 -116 l0 -84 73 0 c39 0 78 -4 86 -9 8 -5 13 -27
13 -58 0 -37 6 -55 24 -76 20 -24 30 -27 82 -27 81 0 102 20 102 99 0 68 4 71
107 71 80 0 93 12 93 92 0 49 -4 65 -22 84 -20 21 -32 24 -100 24 l-78 0 0 60
c0 56 -2 61 -26 70 -31 12 -121 12 -151 0z"/>
<path d="M4565 5601 c-16 -6 -21 -20 -25 -67 l-5 -59 -72 -3 c-62 -2 -77 -7
-98 -28 -21 -20 -25 -35 -25 -79 0 -75 18 -95 86 -95 28 0 66 -3 83 -6 30 -6
31 -7 31 -65 0 -82 18 -99 104 -99 52 0 65 3 70 18 3 9 10 24 15 32 5 8 13 38
18 65 l8 50 88 3 c85 3 88 4 98 30 6 15 12 47 14 71 3 39 0 48 -27 73 -27 25
-37 28 -103 28 -80 0 -85 4 -85 66 0 53 -28 74 -97 73 -32 0 -67 -4 -78 -8z"/>
<path d="M5652 5598 c-7 -7 -12 -35 -12 -64 0 -60 -6 -64 -102 -64 -43 0 -58
-4 -58 -14 0 -7 -9 -16 -20 -19 -21 -5 -24 -19 -20 -107 1 -25 7 -48 13 -52 7
-4 41 -8 77 -8 84 0 110 -16 110 -69 0 -21 3 -53 6 -70 l7 -31 73 0 c71 0 75
1 84 26 6 14 10 41 10 60 0 20 9 44 22 59 20 23 29 25 99 25 87 0 89 1 89 96
0 37 -6 59 -21 78 -18 23 -27 26 -82 26 -102 0 -107 4 -107 66 0 49 -2 55 -26
64 -36 14 -128 12 -142 -2z"/>
<path d="M12748 5474 c-10 -3 -18 -12 -18 -20 0 -8 -9 -14 -20 -14 -11 0 -20
-6 -20 -14 0 -7 -10 -20 -22 -29 l-23 -14 2 -523 c2 -511 3 -523 23 -545 11
-11 20 -29 20 -39 0 -10 9 -20 19 -23 11 -3 21 -13 24 -24 4 -15 14 -19 49
-19 36 0 49 6 81 36 l37 35 0 154 c0 97 4 156 11 160 6 4 10 38 10 78 -1 40
-1 102 -1 138 0 36 -5 81 -10 100 -6 19 -10 138 -10 265 l0 231 -30 31 c-30
32 -83 47 -122 36z m82 -84 l25 -19 3 -510 3 -511 -23 -30 c-17 -24 -29 -30
-59 -30 -21 0 -41 5 -44 10 -10 16 -9 1080 1 1090 8 8 36 16 59 19 6 0 21 -8
35 -19z"/>
<path d="M11924 5375 c-4 -8 -12 -15 -20 -15 -7 0 -19 -10 -25 -22 -7 -13 -18
-27 -25 -31 -12 -7 -14 -97 -14 -504 l0 -495 32 -49 31 -49 68 0 c59 0 71 3
93 24 43 44 52 74 50 176 -1 78 3 102 19 133 l21 37 87 0 c103 0 185 15 193
36 3 8 15 14 26 14 13 0 20 7 20 19 0 10 9 21 19 24 13 3 22 17 26 41 4 20 11
36 17 36 5 0 14 14 19 30 6 17 17 30 24 30 18 0 29 103 23 223 -3 79 -7 96
-26 115 -12 12 -22 33 -22 47 0 16 -6 25 -15 25 -9 0 -20 10 -25 23 -12 29
-45 67 -59 67 -5 0 -16 8 -23 18 -7 11 -29 22 -50 26 -20 3 -39 13 -42 21 -8
22 -414 22 -422 0z m467 -87 c6 -10 16 -18 24 -18 7 0 16 -9 20 -19 3 -10 15
-21 25 -24 12 -3 20 -14 20 -26 0 -11 7 -24 15 -29 20 -10 44 -146 40 -217 -5
-91 -17 -144 -36 -166 -10 -12 -19 -29 -19 -37 0 -15 -62 -82 -76 -82 -4 0
-13 -8 -20 -17 -11 -16 -34 -18 -166 -21 -103 -2 -155 -7 -160 -15 -4 -7 -8
-80 -8 -164 l0 -152 -32 -16 c-45 -22 -82 -11 -107 31 -20 34 -21 49 -21 489
0 366 3 456 13 462 8 4 17 16 20 26 6 17 22 18 233 15 202 -3 226 -5 235 -20z"/>
<path d="M12187 5213 c-4 -3 -7 -38 -7 -78 l0 -71 -33 -12 c-18 -7 -43 -12
-54 -12 -11 0 -26 -7 -33 -15 -7 -8 -19 -15 -26 -15 -19 0 -17 -36 3 -60 12
-13 30 -20 55 -20 20 0 48 -4 62 -10 23 -8 25 -15 28 -82 l3 -73 35 0 35 0 3
73 c3 67 5 74 28 82 14 6 45 10 69 10 40 0 44 2 47 28 2 15 -2 39 -9 53 -10
22 -21 27 -64 32 -29 4 -56 12 -61 19 -4 7 -8 41 -8 75 0 51 -3 64 -19 73 -23
12 -45 13 -54 3z"/>
<path d="M6365 5183 c4 -20 13 -42 21 -48 8 -5 18 -34 23 -64 5 -29 13 -56 19
-60 6 -4 16 -29 22 -56 6 -27 17 -56 24 -65 7 -8 16 -37 20 -65 3 -27 12 -54
19 -60 7 -5 19 -36 26 -67 6 -31 16 -58 22 -60 5 -2 12 -21 16 -43 3 -22 14
-51 24 -65 9 -14 20 -43 24 -65 4 -22 12 -43 17 -46 6 -4 14 -31 19 -60 5 -30
13 -55 19 -57 6 -2 15 -15 20 -28 9 -23 14 -24 91 -24 72 0 81 2 86 20 3 11 9
20 13 20 10 0 30 56 30 83 0 11 7 28 15 37 8 9 19 41 25 70 6 30 17 58 25 63
8 4 15 17 15 29 0 28 22 98 30 98 4 0 10 17 13 38 4 20 16 55 27 77 11 21 20
52 20 67 0 15 7 31 15 36 9 5 18 29 22 60 4 33 12 57 23 65 11 8 20 33 24 69
5 35 13 58 22 62 8 3 14 19 14 41 l0 35 -85 0 c-70 0 -85 -3 -85 -15 0 -9 -7
-18 -15 -21 -8 -3 -17 -26 -20 -52 -4 -26 -15 -59 -26 -74 -10 -15 -19 -39
-19 -54 0 -15 -9 -41 -19 -58 -10 -17 -22 -47 -26 -66 -4 -19 -13 -42 -20 -50
-7 -8 -15 -35 -19 -60 -4 -24 -13 -51 -20 -60 -7 -8 -19 -39 -26 -67 -11 -49
-14 -53 -40 -53 -35 0 -39 6 -47 70 -3 30 -11 50 -18 50 -7 0 -15 18 -19 40
-3 22 -15 55 -26 72 -11 18 -20 44 -20 58 0 14 -9 43 -20 65 -11 22 -20 49
-20 61 0 33 -10 54 -26 54 -9 0 -14 12 -14 38 0 20 -7 48 -15 62 -8 14 -18 33
-21 43 -5 14 -20 17 -96 17 l-90 0 7 -37z"/>
<path d="M2745 5133 c-11 -3 -23 -11 -28 -19 -4 -7 -23 -16 -42 -20 -21 -4
-37 -13 -40 -25 -4 -10 -12 -19 -20 -19 -19 0 -25 -23 -25 -96 0 -63 1 -66 43
-108 49 -50 92 -62 189 -51 47 6 62 11 65 26 3 11 14 19 24 19 13 0 19 7 19
21 0 12 8 23 20 26 17 5 20 14 20 62 0 41 -5 61 -17 73 -10 10 -29 29 -43 43
-14 14 -35 28 -47 31 -13 4 -23 10 -23 14 0 8 -57 31 -69 29 -3 -1 -15 -4 -26
-6z"/>
<path d="M3829 5108 c-19 -18 -45 -54 -58 -80 -21 -44 -21 -49 -7 -77 9 -16
16 -37 16 -46 0 -9 7 -18 15 -21 8 -3 17 -14 20 -25 4 -10 15 -19 26 -19 11 0
22 -6 25 -14 12 -31 164 -31 164 0 0 8 8 14 18 14 20 0 72 49 72 68 0 6 6 15
13 19 8 4 17 22 20 39 5 24 0 39 -19 65 -13 18 -24 39 -24 46 0 7 -6 13 -14
13 -8 0 -22 10 -31 23 -14 20 -25 22 -108 25 -91 2 -92 2 -128 -30z"/>
<path d="M5018 5115 c-12 -14 -27 -25 -34 -25 -7 0 -15 -13 -19 -29 -3 -16
-13 -35 -21 -42 -20 -16 -19 -89 1 -89 8 0 15 -8 15 -18 0 -23 50 -72 73 -72
9 0 17 -6 17 -14 0 -31 152 -31 164 0 3 8 15 14 26 14 11 0 20 6 20 14 0 8 8
21 19 28 10 7 25 33 34 57 13 41 13 48 -5 91 -11 27 -30 53 -45 61 -13 7 -29
21 -34 31 -8 15 -23 18 -99 18 -84 0 -92 -2 -112 -25z"/>
<path d="M13946 5115 c-26 -14 -53 -25 -61 -25 -19 0 -95 -75 -95 -93 0 -9
-16 -21 -36 -27 -42 -14 -54 -5 -54 46 0 23 -5 33 -20 37 -11 3 -20 12 -20 20
0 11 -14 18 -44 22 -57 9 -126 -2 -126 -20 0 -8 -8 -18 -17 -24 -16 -9 -18
-33 -21 -252 -3 -230 -4 -243 -25 -271 -12 -17 -35 -37 -50 -45 -26 -13 -31
-13 -46 1 -10 9 -23 16 -29 16 -6 0 -20 13 -31 29 -20 27 -21 43 -21 244 0
239 -4 277 -32 284 -10 3 -18 11 -18 18 0 17 -57 27 -100 19 -37 -8 -55 -24
-85 -75 -18 -31 -20 -55 -22 -266 -1 -191 1 -235 13 -247 8 -8 14 -26 14 -40
0 -41 21 -126 31 -126 5 0 14 -11 19 -25 5 -14 16 -25 25 -25 8 0 15 -7 15
-15 0 -9 11 -20 25 -25 14 -5 25 -16 25 -24 0 -19 141 -31 268 -22 79 6 99 11
110 27 7 10 19 19 26 19 8 0 16 9 19 20 3 11 12 20 21 20 9 0 16 6 16 13 0 17
55 67 74 67 9 0 16 -6 16 -12 0 -7 18 -29 40 -48 22 -19 40 -40 40 -46 0 -6
13 -14 29 -17 16 -3 36 -13 44 -22 22 -21 262 -22 270 -1 3 8 22 18 41 21 22
5 38 14 41 26 4 10 13 19 21 19 8 0 19 11 24 24 5 13 14 26 21 28 7 2 19 33
25 69 14 75 3 159 -27 200 -10 15 -19 34 -19 43 0 9 -7 16 -16 16 -9 0 -18 9
-21 19 -3 11 -13 21 -23 24 -18 5 -37 58 -26 75 3 5 24 12 46 16 22 3 40 12
40 19 0 7 9 18 20 25 16 9 20 23 20 61 0 30 -5 53 -14 61 -8 6 -20 27 -26 45
-6 19 -20 37 -31 40 -10 4 -19 12 -19 19 0 8 -16 16 -35 19 -19 3 -48 15 -64
26 -41 29 -106 28 -165 -4z m207 -82 c12 -11 29 -22 38 -25 14 -6 39 -68 39
-99 0 -8 -8 -19 -18 -26 -23 -14 -113 2 -125 23 -12 21 -80 17 -110 -6 -14
-11 -30 -20 -36 -20 -17 0 -14 -77 4 -84 8 -3 15 -12 15 -21 0 -8 7 -15 15
-15 8 0 23 -10 34 -21 14 -15 36 -23 71 -27 34 -3 50 -9 50 -19 0 -7 11 -18
25 -23 14 -5 25 -16 25 -25 0 -8 6 -15 14 -15 8 0 18 -9 21 -20 3 -11 14 -27
23 -36 10 -11 18 -39 20 -80 4 -55 1 -66 -22 -97 -14 -18 -26 -38 -26 -43 0
-8 -19 -22 -70 -52 -26 -15 -116 -42 -141 -42 -13 1 -35 7 -49 15 -14 8 -42
14 -62 15 -26 0 -40 6 -48 19 -5 11 -19 23 -30 26 -18 6 -21 14 -18 63 l3 57
52 3 c41 2 55 -1 70 -17 19 -20 59 -27 136 -23 28 2 37 6 37 20 0 10 5 23 10
28 29 29 -28 124 -75 124 -14 0 -28 6 -31 14 -3 8 -19 18 -36 21 -17 4 -46 18
-65 31 -20 13 -40 24 -44 24 -5 0 -9 6 -9 14 0 8 -9 17 -19 21 -37 11 -43 187
-7 207 9 5 16 15 16 22 0 7 11 22 25 34 14 12 25 26 25 32 0 5 7 10 15 10 7 0
18 6 22 14 12 21 40 25 131 22 66 -3 88 -8 105 -23z m-549 -4 c14 -11 26 -26
26 -34 0 -7 7 -18 15 -25 22 -18 22 -435 0 -477 -8 -15 -17 -45 -20 -66 -3
-21 -13 -41 -21 -44 -9 -3 -20 -16 -25 -29 -4 -13 -15 -24 -23 -24 -7 0 -16
-8 -19 -19 -3 -12 -17 -21 -40 -25 -19 -4 -40 -13 -47 -21 -18 -22 -198 -22
-206 0 -4 8 -24 18 -45 21 -21 4 -39 12 -39 19 0 7 -11 20 -25 29 -14 9 -25
23 -25 31 0 8 -4 15 -9 15 -5 0 -15 15 -21 33 -15 39 -26 411 -15 521 6 74 8
76 40 92 32 15 36 15 59 -3 13 -10 27 -31 30 -47 3 -16 6 -126 6 -245 l0 -216
43 -46 c37 -41 48 -47 91 -52 60 -6 91 4 120 40 45 56 45 59 46 301 l0 233 28
29 c33 35 42 36 76 9z m201 -403 c17 -18 41 -39 54 -45 34 -19 14 -32 -58 -38
-34 -3 -61 -11 -61 -17 0 -6 -7 -2 -15 8 -15 20 -21 117 -8 130 14 13 57 -5
88 -38z"/>
<path d="M9294 5076 c-3 -8 -22 -17 -42 -21 -20 -4 -41 -14 -48 -23 -17 -23
-98 -23 -116 -1 -25 31 -98 34 -98 4 0 -7 -7 -18 -15 -25 -13 -11 -15 -62 -15
-347 0 -328 0 -335 23 -373 19 -35 27 -40 58 -40 38 0 89 41 89 72 0 9 4 19 8
22 4 2 7 94 6 203 -2 205 6 285 26 291 7 3 22 15 33 28 14 16 31 24 53 24 44
0 84 -16 84 -34 0 -7 8 -16 19 -19 27 -7 31 -44 32 -292 0 -219 1 -220 26
-257 24 -35 29 -38 75 -38 41 0 51 3 55 20 3 11 11 20 18 20 24 0 32 619 7
628 -6 2 -16 21 -22 43 -6 21 -15 39 -20 39 -4 0 -22 11 -38 25 -17 14 -45 28
-64 32 -18 3 -37 12 -41 20 -11 18 -86 17 -93 -1z"/>
<path d="M9934 5076 c-3 -8 -21 -17 -39 -20 -21 -4 -36 -14 -40 -26 -4 -11
-11 -20 -17 -20 -10 0 -68 -57 -68 -68 0 -3 -11 -20 -25 -38 -14 -18 -25 -41
-25 -51 0 -10 -8 -31 -17 -48 -24 -43 -25 -250 -2 -286 9 -13 20 -39 23 -57 4
-17 12 -32 17 -32 5 0 14 -11 19 -25 5 -14 17 -28 25 -31 8 -4 15 -13 15 -20
0 -8 11 -19 25 -24 14 -5 25 -16 25 -25 0 -8 7 -15 15 -15 8 0 24 -9 36 -21
19 -19 30 -20 165 -17 126 3 147 5 155 21 6 9 17 17 25 17 9 0 30 11 48 25 18
14 38 25 43 25 12 0 22 89 15 128 -3 14 -16 28 -31 34 -38 14 -120 2 -146 -22
-18 -17 -35 -20 -113 -20 -74 0 -92 3 -92 15 0 8 -9 19 -20 25 -14 7 -20 21
-20 44 0 30 4 34 31 40 17 3 110 6 205 6 l174 0 11 28 c16 39 4 254 -14 267
-8 6 -18 25 -22 43 -3 18 -15 37 -26 42 -10 6 -19 17 -19 24 0 8 -11 17 -25
20 -14 4 -25 13 -25 21 0 8 -14 17 -34 21 -19 3 -37 12 -40 20 -4 11 -29 14
-106 14 -77 0 -102 -3 -106 -14z m182 -213 c28 -23 34 -35 34 -65 l0 -38 -110
0 -110 0 0 36 c0 86 111 126 186 67z"/>
<path d="M10647 5076 c-3 -8 -19 -17 -36 -21 -17 -4 -36 -15 -41 -26 -6 -10
-16 -19 -23 -20 -7 0 -24 -26 -40 -57 -22 -46 -27 -71 -27 -127 0 -84 7 -115
26 -115 8 0 14 -6 14 -13 0 -16 50 -62 78 -71 12 -4 22 -11 22 -15 0 -5 20
-14 45 -20 25 -6 45 -15 45 -20 0 -6 15 -15 34 -22 26 -9 36 -20 40 -42 7 -36
4 -42 -40 -63 -24 -12 -38 -14 -42 -6 -4 5 -24 13 -45 17 -21 4 -42 16 -48 26
-8 15 -21 19 -64 19 -34 0 -55 -4 -55 -11 0 -7 -12 -23 -26 -36 -22 -20 -25
-30 -21 -61 4 -21 15 -43 27 -51 11 -7 20 -19 20 -26 0 -8 14 -16 30 -20 17
-4 36 -15 43 -26 11 -17 25 -19 150 -19 116 0 139 2 144 16 3 8 16 20 29 25
13 4 24 15 24 24 0 8 7 15 15 15 9 0 20 11 25 25 8 20 16 25 46 25 27 0 37 -5
41 -20 3 -11 12 -20 20 -20 8 0 17 -9 20 -20 3 -11 10 -20 15 -20 6 0 23 -11
40 -25 28 -24 36 -25 154 -25 101 0 126 3 130 15 3 8 22 17 41 21 24 4 37 14
43 30 5 13 16 24 24 24 9 0 17 15 21 40 4 22 11 42 16 46 12 7 12 101 0 108
-4 3 -11 24 -15 45 -4 26 -14 44 -26 51 -11 6 -20 17 -20 24 0 8 -9 16 -20 19
-11 3 -20 12 -20 21 0 9 -8 16 -20 16 -10 0 -24 9 -30 20 -6 12 -25 22 -48 26
-21 3 -52 19 -71 36 -33 30 -34 31 -18 57 20 34 49 38 91 12 61 -38 168 -24
180 23 9 36 -9 108 -30 119 -10 6 -28 21 -40 34 -12 12 -29 23 -38 23 -9 0
-19 7 -22 15 -5 12 -25 15 -91 15 -70 0 -89 -4 -110 -20 -14 -11 -31 -20 -38
-20 -7 0 -15 -9 -18 -20 -3 -11 -12 -20 -21 -20 -9 0 -16 -7 -16 -15 0 -8 -8
-19 -19 -24 -12 -7 -20 -25 -23 -56 -3 -25 -13 -54 -22 -64 -22 -24 -20 -64 4
-86 11 -10 20 -26 20 -37 0 -10 9 -26 19 -35 54 -50 68 -61 89 -67 12 -4 22
-11 22 -16 0 -5 15 -12 33 -16 17 -3 45 -17 60 -30 16 -13 34 -24 42 -24 19 0
38 -59 24 -76 -6 -8 -18 -14 -25 -14 -8 0 -14 -4 -14 -10 0 -14 -23 -12 -56 5
-16 8 -37 15 -46 15 -10 0 -32 9 -50 20 -42 25 -84 26 -97 1 -13 -23 -69 -35
-87 -20 -8 7 -14 31 -14 59 0 30 -6 52 -15 60 -8 7 -15 18 -15 26 0 7 -9 18
-20 24 -11 6 -20 16 -20 22 0 13 -47 58 -61 58 -6 0 -22 9 -36 19 -13 11 -44
23 -69 27 -27 4 -44 11 -44 20 0 7 -9 18 -20 24 -46 25 -6 90 55 90 33 0 73
-15 86 -33 9 -13 110 -10 123 3 6 6 10 37 9 73 -1 50 -6 65 -22 76 -12 7 -21
19 -21 26 0 8 -18 16 -41 20 -22 4 -43 13 -46 21 -7 20 -169 20 -176 0z"/>
<path d="M7440 5030 c-13 -13 -33 -20 -59 -20 -39 0 -40 0 -46 -45 -4 -24 -3
-61 2 -82 8 -35 12 -38 42 -36 21 1 38 9 47 22 14 19 25 21 105 21 50 0 100
-5 112 -11 36 -20 57 -52 54 -84 l-2 -30 -104 -5 c-93 -5 -105 -7 -119 -27
-10 -17 -24 -23 -51 -23 -42 0 -79 -33 -87 -76 -3 -16 -14 -34 -25 -42 -16
-11 -19 -25 -19 -106 0 -88 2 -95 28 -123 15 -16 44 -48 65 -71 l38 -42 89 0
c71 0 90 3 90 14 0 8 17 20 38 27 20 7 42 19 49 28 16 21 43 5 62 -37 13 -29
18 -32 62 -32 76 0 74 -10 72 346 l-2 314 -46 46 c-26 25 -62 50 -81 55 -19 6
-34 16 -34 24 0 12 -23 15 -130 15 -117 0 -132 -2 -150 -20z m249 -454 c7 -8
11 -36 9 -63 -2 -39 -7 -49 -23 -51 -11 -3 -28 -12 -37 -23 -34 -35 -119 -37
-152 -3 -16 16 -21 79 -10 121 7 27 19 30 120 32 59 1 85 -3 93 -13z"/>
<path d="M8183 5038 c-11 -17 -16 -681 -6 -738 l8 -45 70 -3 c39 -1 77 2 85 8
13 8 16 52 18 271 l3 263 52 49 52 49 69 -4 c46 -3 71 -8 74 -17 2 -7 13 -21
23 -29 18 -15 19 -35 19 -282 0 -146 3 -275 6 -287 6 -21 12 -23 84 -23 l78 0
7 93 c3 50 5 190 3 310 -3 195 -5 220 -20 231 -10 7 -18 22 -18 34 0 30 -10
52 -25 52 -8 0 -17 9 -20 20 -4 13 -15 20 -31 20 -13 0 -33 9 -44 20 -16 16
-33 20 -95 20 -64 0 -76 -3 -85 -20 -6 -11 -19 -20 -30 -20 -10 0 -38 -18 -61
-40 -60 -56 -84 -54 -80 6 1 11 -3 32 -8 47 -10 25 -15 27 -65 27 -33 0 -58
-5 -63 -12z"/>
<path d="M2214 4962 c-28 -17 -14 -146 17 -163 11 -5 19 -18 19 -28 0 -10 21
-37 48 -61 26 -23 57 -51 68 -61 12 -10 26 -19 31 -19 5 0 16 -9 26 -20 9 -11
27 -20 40 -20 12 0 34 -8 47 -17 14 -10 45 -23 70 -28 l45 -10 6 -265 c3 -146
6 -266 7 -267 1 -2 57 -3 123 -3 117 0 123 1 145 25 24 25 24 27 20 233 -1
114 -1 224 2 244 4 34 8 38 41 44 20 4 47 15 61 25 14 9 41 20 62 23 20 4 39
13 42 21 3 8 14 15 25 15 11 0 22 9 26 20 3 11 13 20 22 20 8 0 17 9 20 20 3
11 12 20 19 20 8 0 19 11 23 24 5 13 17 26 25 29 9 4 16 12 16 20 0 18 42 57
61 57 8 0 21 -15 27 -34 7 -19 19 -37 27 -40 8 -3 15 -11 15 -17 0 -18 100
-109 127 -115 13 -4 29 -14 36 -24 6 -9 28 -20 49 -24 20 -3 38 -13 41 -20 3
-7 23 -16 45 -20 70 -11 74 -26 73 -270 0 -116 2 -226 5 -243 l6 -33 124 0
c99 0 124 3 124 14 0 7 6 18 13 25 11 8 13 55 11 213 -3 269 5 297 82 298 12
0 24 6 27 14 3 8 21 17 39 21 18 4 41 16 51 26 10 11 26 19 36 19 9 0 27 11
39 25 12 14 26 25 32 25 5 0 10 7 10 15 0 8 7 15 15 15 9 0 21 11 27 25 6 14
17 25 24 25 6 0 16 17 21 38 8 34 12 37 43 37 31 0 35 -3 43 -37 5 -22 15 -38
23 -38 8 0 19 -11 24 -25 5 -14 16 -25 24 -25 7 0 16 -9 19 -20 3 -11 12 -20
20 -20 9 0 18 -9 22 -19 3 -12 19 -21 39 -25 19 -4 36 -13 39 -20 3 -8 24 -17
46 -21 23 -4 41 -12 41 -20 0 -8 20 -15 55 -20 69 -8 75 -18 75 -131 l0 -86
31 6 c17 3 35 6 40 6 5 0 11 23 15 50 4 28 11 53 16 56 12 8 45 -32 60 -73 8
-21 21 -36 36 -40 28 -7 26 -37 -4 -41 -15 -2 -25 -15 -32 -41 -7 -20 -23 -48
-37 -61 -27 -26 -29 -23 -39 44 -6 47 -12 54 -51 58 l-30 3 -3 -125 c-4 -184
-15 -170 132 -170 106 0 125 2 139 18 15 16 17 49 17 248 0 237 4 274 25 274
7 0 29 11 49 25 20 14 48 25 61 25 14 0 29 8 35 20 6 11 17 20 26 20 8 0 27
11 42 25 15 14 32 25 39 25 7 0 13 6 13 14 0 7 11 21 24 30 14 8 28 26 32 38
4 13 12 27 19 33 6 5 17 29 24 53 6 23 16 42 21 42 6 0 10 16 10 35 0 43 -13
47 -125 43 l-80 -3 -3 -35 c-2 -19 -10 -39 -18 -43 -8 -4 -14 -17 -14 -27 0
-11 -3 -20 -8 -20 -4 0 -25 -17 -47 -39 -22 -21 -55 -42 -72 -45 -18 -4 -37
-15 -42 -24 -8 -15 -31 -17 -176 -17 -146 0 -168 2 -176 17 -5 10 -28 20 -54
24 -25 3 -49 12 -53 19 -4 7 -17 17 -29 24 -13 6 -23 18 -23 25 0 7 -9 21 -20
31 -11 10 -25 35 -30 55 -15 56 -37 61 -240 58 l-175 -3 -3 -42 c-2 -29 -11
-49 -27 -65 -14 -13 -25 -27 -25 -33 -1 -12 -75 -65 -92 -65 -6 0 -31 -12 -55
-26 -43 -25 -48 -25 -194 -22 -128 3 -152 6 -160 20 -5 9 -27 19 -50 23 -22 4
-43 13 -46 21 -3 8 -11 14 -18 14 -19 0 -65 50 -65 72 0 10 -7 21 -15 24 -8 3
-17 21 -21 39 -5 27 -12 34 -36 39 -47 9 -351 7 -367 -3 -8 -5 -16 -32 -19
-61 -4 -40 -9 -54 -23 -57 -11 -3 -19 -12 -19 -19 0 -8 -11 -19 -25 -24 -14
-5 -25 -16 -25 -24 0 -8 -15 -17 -37 -21 -21 -4 -50 -16 -65 -27 -26 -18 -42
-19 -184 -16 -133 3 -157 5 -168 20 -7 10 -31 20 -54 24 -26 4 -42 12 -42 20
0 8 -6 14 -13 14 -17 0 -67 58 -67 79 0 18 -41 79 -62 93 -16 10 -129 10 -144
0z m586 -554 c0 -53 6 -62 50 -74 45 -12 45 -36 1 -45 -42 -9 -51 -22 -51 -76
0 -36 -3 -43 -19 -43 -15 0 -21 10 -26 42 -8 44 -22 61 -63 78 -27 12 -25 30
5 45 39 20 50 35 57 75 5 31 11 40 26 40 17 0 20 -7 20 -42z m1168 -31 c13
-25 32 -49 43 -52 24 -8 25 -21 0 -28 -10 -2 -31 -30 -47 -61 -15 -31 -31 -56
-35 -56 -9 0 -15 19 -24 72 -5 24 -13 38 -26 41 -25 7 -25 33 0 40 13 3 22 17
27 43 3 22 9 43 11 47 10 16 29 -1 51 -46z"/>
</g>
</svg>
