<?xml version="1.0" standalone="no"?>
<!DOCTYPE svg PUBLIC "-//W3C//DTD SVG 20010904//EN"
 "http://www.w3.org/TR/2001/REC-SVG-20010904/DTD/svg10.dtd">
<svg version="1.0" xmlns="http://www.w3.org/2000/svg"
 width="2306.000000pt" height="710.000000pt" viewBox="0 0 2306.000000 710.000000"
 preserveAspectRatio="xMidYMid meet">

<g transform="translate(0.000000,710.000000) scale(0.100000,-0.100000)"
fill="#000000" stroke="none">
<path d="M1811 5041 c-9 -6 -15 -39 -19 -105 -2 -53 -8 -99 -12 -101 -4 -3
-59 -5 -122 -6 -63 0 -119 -4 -124 -7 -5 -4 -18 -26 -28 -49 -15 -34 -18 -60
-14 -146 2 -68 8 -110 17 -121 11 -13 34 -16 122 -16 59 0 119 -4 133 -10 24
-9 25 -13 28 -102 3 -83 5 -94 24 -102 11 -5 26 -22 32 -38 l10 -28 106 0 c64
0 106 4 106 10 0 6 7 10 15 10 27 0 45 55 45 137 0 120 3 123 153 123 67 0
127 4 132 8 6 4 21 22 33 40 20 29 24 46 24 119 1 77 -2 88 -21 102 -12 9 -28
28 -34 41 -12 24 -17 25 -127 27 -172 4 -159 -5 -162 116 l-3 102 -150 2 c-82
2 -156 -1 -164 -6z"/>
<path d="M3809 5040 c-20 -11 -39 -88 -37 -142 3 -62 -9 -68 -141 -68 -64 0
-122 -4 -128 -8 -34 -21 -40 -313 -7 -326 7 -3 65 -6 127 -7 63 -1 119 -4 124
-8 13 -8 26 -93 24 -148 -2 -34 2 -44 22 -57 13 -9 29 -27 35 -41 11 -24 15
-25 106 -25 77 0 101 4 129 20 42 25 47 40 47 145 0 44 5 87 10 95 7 11 40 16
142 20 75 3 142 10 154 17 25 14 34 57 34 163 0 82 -5 96 -35 101 -12 3 -21
14 -23 27 -4 28 -20 32 -162 35 l-115 2 -5 105 -5 105 -140 2 c-78 2 -147 -2
-156 -7z"/>
<path d="M5605 5038 c-2 -7 -5 -53 -7 -101 -2 -65 -7 -90 -18 -97 -8 -5 -63
-10 -122 -10 -121 0 -138 -4 -138 -32 0 -13 -11 -24 -30 -31 l-30 -11 0 -99
c0 -78 3 -99 15 -103 8 -4 15 -12 15 -20 0 -29 44 -42 163 -46 64 -2 122 -9
128 -15 6 -6 13 -48 16 -94 9 -152 30 -172 183 -167 l94 3 8 31 c4 18 16 34
26 37 16 4 20 18 25 93 4 69 9 91 23 101 12 9 54 13 133 13 123 0 162 11 167
44 1 10 8 22 15 26 7 5 13 41 15 94 l3 87 -31 19 c-16 10 -35 29 -42 42 -11
22 -17 23 -139 26 -126 3 -128 3 -137 28 -6 14 -10 49 -10 77 0 50 -16 90 -44
109 -6 4 -71 8 -144 8 -97 0 -134 -3 -137 -12z"/>
<path d="M7437 5044 c-4 -4 -7 -49 -7 -100 0 -59 -4 -95 -11 -100 -7 -4 -65
-9 -131 -12 -119 -5 -119 -5 -134 -33 -9 -17 -23 -29 -35 -29 -31 0 -42 -44
-36 -149 7 -121 16 -128 168 -130 86 -1 150 -18 165 -43 4 -7 11 -59 15 -117
5 -68 12 -107 21 -112 22 -14 222 -11 242 4 15 11 19 32 24 105 3 68 8 92 18
92 8 0 14 7 14 15 0 8 9 23 20 33 17 16 42 20 152 24 95 4 133 10 139 19 5 8
7 68 6 134 -2 107 -4 122 -23 140 -41 39 -62 45 -157 45 -50 -1 -108 2 -127 7
l-35 9 -5 99 -5 100 -136 3 c-74 1 -138 -1 -142 -4z"/>
<path d="M19238 4833 c-9 -2 -18 -14 -20 -26 -2 -13 -12 -23 -27 -27 -14 -3
-30 -19 -40 -40 -10 -22 -24 -36 -39 -38 -13 -2 -24 -12 -26 -25 -9 -45 -13
-710 -7 -1217 l6 -525 38 -38 c21 -21 37 -47 37 -60 0 -27 17 -47 41 -47 10 0
21 -13 28 -30 10 -29 11 -30 80 -30 69 0 71 1 107 40 20 22 45 42 55 45 29 9
36 73 31 295 -4 185 -2 210 16 261 17 50 19 78 17 281 -2 168 -6 231 -16 249
-11 19 -15 106 -16 409 -2 212 -5 400 -8 417 -4 24 -12 34 -30 39 -14 3 -31
18 -38 32 -7 17 -23 29 -42 33 -35 8 -122 9 -147 2z m117 -123 c10 -11 24 -20
31 -20 8 0 20 -11 29 -23 13 -21 15 -126 15 -872 l0 -847 -22 -24 c-13 -13
-31 -33 -41 -44 -16 -19 -25 -20 -75 -14 -31 3 -59 8 -61 10 -16 15 -21 209
-21 894 0 432 3 817 6 856 l7 71 46 15 c63 21 65 21 86 -2z"/>
<path d="M17927 4693 c-29 -3 -40 -10 -47 -29 -7 -17 -17 -24 -35 -24 -20 0
-29 -8 -40 -34 -8 -19 -23 -37 -34 -41 -15 -4 -20 -19 -25 -73 -8 -83 -7
-1472 1 -1564 4 -56 11 -73 35 -100 16 -18 32 -45 35 -61 4 -17 13 -29 27 -32
48 -9 139 -13 189 -8 47 5 55 9 64 33 7 18 19 30 34 32 19 2 25 10 27 34 2 18
12 40 23 50 20 18 27 64 9 64 -16 0 -12 50 5 66 10 10 15 35 15 69 0 34 -5 59
-15 69 -17 16 -21 66 -5 66 5 0 13 12 16 28 4 15 15 38 26 51 10 13 18 29 18
36 0 17 63 25 245 30 179 5 219 13 223 42 2 15 13 22 40 27 32 5 39 11 47 38
7 22 18 34 35 38 21 5 26 15 36 64 11 56 24 76 51 76 6 0 13 17 15 37 2 30 8
38 28 43 22 5 26 14 37 75 12 72 20 376 10 411 -3 10 -8 31 -11 46 -4 17 -14
28 -28 30 -24 3 -35 30 -37 91 -1 33 -4 38 -31 43 -22 5 -32 14 -41 41 -6 21
-20 38 -35 43 -15 6 -24 18 -24 30 0 21 -4 24 -51 34 -19 4 -28 14 -32 35 -6
27 -9 29 -72 36 -58 6 -66 9 -71 31 l-6 24 -263 0 c-144 0 -282 2 -306 4 -24
2 -61 2 -82 -1z m675 -139 c37 -5 46 -11 55 -35 8 -19 18 -29 32 -29 14 0 29
-12 42 -35 13 -21 29 -35 40 -35 20 0 23 -5 33 -51 4 -17 14 -29 30 -33 21 -5
25 -14 35 -88 7 -46 17 -112 22 -148 6 -36 10 -72 9 -80 -1 -8 -4 -44 -6 -80
-3 -65 -16 -151 -29 -202 -4 -15 -17 -34 -30 -42 -14 -9 -25 -29 -29 -53 -12
-64 -16 -70 -45 -76 -21 -4 -32 -15 -39 -37 -8 -23 -17 -30 -37 -30 -17 0 -29
-8 -37 -25 -6 -14 -19 -25 -29 -25 -10 0 -21 -4 -24 -10 -4 -6 -92 -10 -230
-10 -123 0 -235 -4 -249 -10 l-26 -9 -2 -268 -3 -268 -32 -10 c-17 -6 -41 -19
-53 -30 -20 -18 -21 -18 -65 3 -27 13 -54 37 -69 61 -14 21 -30 41 -35 42 -10
4 -12 265 -11 1246 0 273 1 292 18 297 10 4 26 22 35 41 l17 35 333 0 c184 0
354 -3 379 -6z"/>
<path d="M18314 4398 c-4 -7 -10 -66 -13 -132 l-6 -121 -37 -9 c-21 -5 -38
-13 -38 -18 0 -4 -22 -8 -49 -8 -38 0 -54 -5 -72 -24 -13 -13 -33 -25 -44 -27
-33 -7 -30 -49 7 -90 31 -35 37 -37 113 -43 131 -10 125 -5 125 -101 0 -45 3
-103 6 -129 l7 -47 61 3 61 3 6 130 c3 72 7 131 8 132 0 0 46 3 101 5 112 3
114 5 125 74 4 31 1 50 -13 75 -17 31 -23 34 -73 37 -30 2 -58 7 -63 13 -6 5
-22 9 -38 9 -39 0 -48 25 -48 134 0 89 -2 97 -25 121 -28 27 -88 35 -101 13z"/>
<path d="M8646 4413 c-16 -4 -18 -12 -13 -66 3 -34 10 -63 15 -65 31 -10 42
-32 52 -102 14 -97 17 -108 41 -115 11 -4 19 -16 19 -28 1 -12 9 -56 19 -97
12 -52 23 -76 34 -78 19 -4 22 -16 36 -122 7 -55 15 -78 30 -90 14 -10 25 -39
36 -88 16 -78 30 -112 50 -124 7 -5 16 -39 20 -78 5 -54 11 -73 26 -81 10 -5
19 -16 19 -25 0 -8 6 -25 14 -37 7 -12 16 -44 20 -71 4 -34 14 -56 31 -72 18
-16 25 -33 25 -59 0 -58 21 -124 45 -143 12 -10 26 -32 30 -50 l7 -32 126 0
c70 0 132 4 139 8 6 4 15 20 19 36 4 16 14 31 24 33 12 3 21 29 34 96 14 69
24 97 41 112 19 16 26 37 34 100 9 65 16 84 35 100 18 15 27 38 36 85 14 77
29 121 47 135 7 6 15 33 19 60 8 78 13 95 27 95 17 0 45 75 53 143 6 48 11 61
30 69 18 8 24 22 29 62 16 130 17 134 36 139 25 7 37 38 44 120 6 62 19 90 45
99 5 1 13 30 16 64 l7 61 -48 6 c-26 4 -87 7 -134 7 -89 0 -111 -8 -111 -41 0
-9 -11 -24 -24 -33 -20 -13 -26 -27 -31 -81 -4 -36 -11 -68 -16 -71 -5 -3 -9
-13 -9 -23 0 -10 -9 -25 -20 -32 -15 -11 -22 -31 -28 -81 -5 -37 -15 -75 -23
-85 -27 -32 -59 -123 -59 -166 0 -17 -7 -28 -20 -32 -22 -7 -34 -46 -45 -140
-5 -40 -13 -64 -25 -72 -17 -12 -26 -41 -50 -150 -13 -57 -15 -58 -82 -47 -42
7 -50 24 -63 137 -4 40 -11 57 -21 57 -18 0 -29 29 -39 97 -4 29 -13 57 -21
64 -8 6 -14 17 -14 24 0 7 -6 18 -14 24 -8 7 -17 41 -21 81 -5 48 -13 74 -26
86 -20 18 -34 57 -44 124 -9 54 -21 80 -39 80 -18 0 -24 16 -31 92 -9 93 -13
106 -35 113 -11 3 -23 18 -26 31 -4 14 -16 29 -28 34 -23 8 -220 11 -250 3z"/>
<path d="M4465 4268 c-11 -6 -34 -26 -51 -44 -18 -19 -39 -34 -48 -34 -10 0
-21 -19 -32 -57 -10 -36 -26 -66 -42 -79 l-25 -21 31 -64 c17 -35 33 -75 34
-89 2 -17 10 -26 25 -28 16 -2 25 -13 31 -35 7 -28 13 -32 45 -35 29 -3 38 -8
43 -26 6 -27 41 -36 140 -36 92 0 123 9 130 36 5 18 13 24 35 24 15 0 34 7 41
16 7 9 25 28 41 42 15 15 27 36 27 49 0 14 10 27 27 35 21 10 29 24 36 57 10
49 -2 86 -40 127 -13 14 -27 39 -30 56 -4 22 -13 30 -35 35 -18 3 -34 15 -40
29 -19 42 -64 54 -200 54 -71 0 -131 -5 -143 -12z"/>
<path d="M6427 4273 c-21 -3 -32 -14 -43 -39 -12 -28 -20 -34 -44 -34 -21 0
-30 -5 -30 -17 0 -30 -24 -86 -47 -109 -17 -17 -23 -35 -23 -68 0 -58 7 -76
36 -87 16 -6 24 -16 24 -33 0 -32 74 -106 106 -106 17 0 27 -8 33 -24 12 -31
29 -36 121 -36 107 0 140 8 151 36 6 16 16 24 33 24 40 0 56 11 56 37 0 18 8
27 30 34 20 7 30 18 30 30 0 11 6 32 14 47 19 36 31 122 18 122 -5 0 -13 12
-16 28 -12 49 -41 102 -59 108 -11 3 -38 25 -60 47 l-42 42 -130 1 c-71 1
-143 0 -158 -3z"/>
<path d="M2568 4245 c-11 -24 -44 -39 -108 -47 -16 -2 -26 -11 -30 -28 -3 -16
-18 -30 -38 -39 -38 -17 -46 -46 -46 -173 1 -83 2 -89 30 -117 40 -40 74 -81
74 -89 0 -4 19 -16 43 -26 56 -24 190 -32 276 -16 60 11 69 16 78 41 8 20 19
28 39 31 24 2 29 8 32 35 2 25 10 34 33 42 l29 10 0 96 c0 93 -1 96 -25 105
-14 5 -25 16 -25 24 0 9 -19 36 -41 60 -31 33 -52 46 -81 51 -22 4 -42 13 -45
21 -10 26 -60 44 -123 44 -55 0 -61 -2 -72 -25z"/>
<path d="M21235 4235 c-27 -24 -50 -35 -72 -35 -44 0 -83 -16 -83 -35 0 -8
-18 -26 -39 -41 -29 -19 -43 -37 -52 -70 -11 -35 -19 -46 -39 -50 -14 -3 -35
-11 -48 -17 -39 -19 -57 1 -60 70 -3 56 -5 61 -35 74 -19 9 -34 24 -37 39 -5
22 -13 26 -68 34 -36 5 -92 5 -134 0 -69 -8 -73 -11 -76 -36 -2 -17 -11 -28
-25 -32 -17 -4 -26 -20 -39 -63 -14 -49 -16 -113 -17 -418 0 -346 -1 -360 -20
-375 -11 -8 -25 -27 -30 -42 -13 -35 -119 -89 -132 -67 -18 30 -25 36 -59 45
-28 8 -36 15 -38 38 -2 18 -11 30 -23 33 -28 8 -30 37 -25 363 2 163 -1 336
-7 386 -10 89 -11 92 -41 105 -19 9 -32 23 -34 37 -3 21 -7 22 -110 22 l-107
0 -17 -30 c-9 -17 -24 -30 -31 -30 -17 0 -27 -21 -27 -55 0 -14 -7 -25 -19
-28 -28 -7 -35 -97 -35 -485 0 -356 0 -352 39 -365 6 -2 10 -28 11 -58 2 -121
27 -198 66 -211 5 -2 13 -19 17 -38 5 -28 12 -36 32 -38 19 -2 28 -11 35 -35
7 -25 16 -33 39 -37 21 -4 31 -12 35 -30 5 -23 12 -26 80 -32 97 -9 375 -9
465 0 63 6 71 10 83 35 9 19 21 27 38 27 19 0 28 8 39 34 10 24 22 35 44 39
25 5 30 12 33 39 2 25 9 34 28 38 15 4 26 15 30 30 5 21 12 25 40 25 31 0 35
-3 38 -27 2 -20 10 -30 28 -34 16 -4 30 -19 39 -40 9 -23 21 -34 34 -34 14 0
25 -11 35 -35 13 -29 20 -35 46 -35 36 0 67 -15 90 -42 13 -15 34 -19 140 -24
69 -2 162 -2 208 2 70 5 82 9 82 25 0 24 12 30 72 38 31 3 54 12 58 21 22 47
29 55 54 58 19 2 26 9 26 25 0 28 9 40 41 54 28 12 39 48 39 131 0 24 7 56 15
72 14 27 14 33 0 60 -8 16 -15 54 -15 85 0 43 -4 59 -20 72 -11 10 -20 23 -20
31 0 7 -6 15 -14 18 -7 3 -16 23 -20 45 -5 33 -10 39 -31 39 -16 0 -28 7 -31
18 -11 35 -21 47 -43 50 -12 2 -24 9 -25 15 -2 7 -9 31 -17 55 -16 56 -4 68
76 79 56 7 60 10 63 36 3 22 10 29 33 34 29 6 30 8 44 79 7 34 -11 124 -27
137 -19 15 -45 64 -52 99 -4 18 -13 28 -29 30 -13 2 -27 15 -36 34 -13 30 -18
32 -72 36 -43 3 -65 10 -82 26 -13 12 -29 22 -35 22 -7 0 -12 5 -12 10 0 6
-42 10 -107 10 l-108 -1 -40 -34z m323 -113 c11 -16 77 -60 99 -64 18 -3 44
-65 57 -140 6 -32 3 -40 -21 -63 -19 -18 -34 -24 -48 -19 -11 3 -50 11 -87 16
-53 9 -71 16 -83 34 -13 21 -23 24 -76 24 -53 0 -68 -5 -117 -37 -31 -21 -60
-42 -64 -48 -4 -5 -8 -31 -8 -58 0 -41 3 -49 24 -56 15 -6 25 -20 29 -40 6
-28 10 -31 42 -31 29 0 36 -4 41 -25 7 -27 34 -38 139 -52 48 -6 61 -12 64
-28 4 -24 19 -35 48 -35 17 0 24 -8 29 -34 5 -28 11 -35 32 -38 20 -2 28 -10
32 -30 5 -30 30 -63 51 -70 11 -4 15 -36 18 -130 3 -116 1 -127 -16 -136 -11
-6 -31 -36 -46 -66 -17 -35 -34 -56 -45 -56 -9 0 -30 -14 -47 -31 -34 -35 -64
-49 -104 -49 -15 0 -49 -11 -75 -25 -60 -32 -130 -34 -161 -5 -15 15 -46 23
-108 31 -76 10 -86 14 -89 33 -2 12 -17 28 -38 38 -23 12 -37 27 -41 45 -10
41 -10 136 -1 150 10 17 107 26 162 16 36 -7 45 -13 50 -33 5 -22 13 -26 67
-34 34 -5 95 -5 137 -1 72 6 76 8 82 33 3 15 13 42 22 59 13 26 14 35 4 45 -7
7 -12 19 -12 27 0 8 -8 31 -17 52 -18 38 -68 69 -111 69 -12 0 -31 11 -44 24
-13 14 -45 31 -73 38 -27 7 -52 15 -55 18 -20 23 -81 60 -98 60 -15 0 -26 10
-36 35 -8 19 -22 35 -30 35 -34 0 -46 40 -46 161 0 142 5 172 33 184 13 6 24
22 27 40 4 21 14 34 37 45 18 8 33 24 35 34 2 11 17 27 33 36 17 9 34 26 40
38 12 27 37 30 213 28 94 -2 146 -6 150 -14z m-924 -7 c3 -8 14 -15 25 -15 23
0 61 -44 61 -71 0 -10 10 -25 23 -34 l22 -15 3 -371 2 -371 -24 -29 c-15 -17
-27 -48 -31 -77 -11 -79 -25 -111 -53 -124 -18 -9 -28 -23 -30 -40 -2 -20 -10
-28 -32 -33 -21 -5 -30 -14 -35 -35 -6 -25 -12 -29 -58 -35 -39 -6 -58 -15
-79 -37 l-28 -30 -151 -2 -151 -1 -23 29 c-17 21 -37 31 -81 40 -50 10 -60 15
-62 35 -2 15 -15 28 -38 37 -26 11 -34 20 -34 39 0 15 -9 31 -24 41 -32 20
-43 57 -51 174 -10 142 -14 672 -7 775 7 87 8 90 37 104 17 7 40 23 52 34 24
21 29 20 75 -25 10 -10 24 -18 32 -18 22 0 26 -71 26 -457 l0 -365 33 -34 c49
-51 68 -71 78 -81 6 -4 15 -16 22 -25 18 -27 178 -36 230 -14 21 9 41 24 44
34 4 9 12 21 20 25 7 4 13 14 13 22 0 7 9 16 19 20 10 3 22 16 27 28 4 12 10
206 13 432 l6 409 25 6 c16 3 30 18 39 38 16 35 54 45 65 17z m326 -643 c9 -9
19 -25 23 -34 3 -10 15 -18 26 -18 13 0 27 -12 36 -30 10 -20 26 -33 45 -36
59 -12 44 -64 -19 -64 -68 0 -166 -20 -178 -37 -12 -15 -13 -15 -13 -1 0 9 -5
18 -12 20 -13 5 -24 162 -14 204 7 25 9 26 49 20 23 -4 49 -15 57 -24z"/>
<path d="M13502 4171 c-21 -23 -39 -31 -84 -36 -46 -6 -58 -11 -58 -25 0 -25
-19 -37 -70 -43 -63 -9 -112 4 -126 32 -17 34 -32 41 -89 41 -58 0 -70 -6 -80
-40 -4 -14 -16 -33 -26 -42 -17 -17 -18 -49 -16 -582 l2 -564 23 -31 c12 -16
22 -35 22 -41 0 -27 41 -50 88 -50 41 0 53 5 90 38 23 21 42 47 42 58 0 11 8
31 17 44 16 22 18 61 19 370 0 190 4 368 8 395 10 60 30 95 56 95 10 0 22 9
25 20 16 49 55 59 170 43 41 -5 49 -10 61 -39 8 -20 22 -34 35 -36 40 -6 48
-71 53 -473 3 -203 6 -378 6 -388 0 -9 11 -27 25 -39 14 -12 25 -30 25 -40 0
-26 56 -48 120 -48 63 0 90 13 90 44 0 18 8 27 30 35 l30 10 0 484 c0 267 -3
499 -6 517 -4 17 -14 34 -23 38 -22 8 -31 23 -31 54 0 15 -4 30 -10 33 -5 3
-10 15 -10 26 0 10 -5 19 -11 19 -19 0 -98 54 -99 67 0 11 -16 16 -97 28 -27
4 -43 12 -43 21 0 20 -33 34 -85 34 -38 0 -51 -5 -73 -29z"/>
<path d="M14569 4170 c-9 -24 -17 -30 -38 -30 -49 0 -89 -20 -99 -49 -7 -20
-19 -30 -40 -34 -21 -4 -31 -13 -36 -32 -4 -14 -17 -30 -31 -35 -14 -5 -27
-21 -31 -37 -7 -28 -14 -39 -50 -78 -14 -15 -27 -50 -35 -94 -8 -46 -17 -71
-25 -71 -23 0 -29 -49 -29 -230 0 -179 10 -242 40 -254 9 -3 15 -18 15 -36 0
-36 20 -78 49 -103 12 -9 24 -30 27 -47 5 -22 13 -30 35 -35 22 -5 29 -12 29
-31 0 -19 8 -29 35 -40 22 -9 37 -23 41 -38 4 -18 15 -26 40 -30 21 -4 34 -13
34 -22 0 -8 21 -24 46 -34 40 -18 69 -20 233 -20 166 0 192 2 228 20 22 10 43
26 46 35 4 9 19 15 35 15 18 0 39 10 56 27 29 29 71 53 92 53 8 0 18 10 23 23
11 29 13 162 3 207 -7 32 -12 36 -62 48 -37 9 -79 12 -128 7 -69 -6 -75 -9
-93 -38 -10 -18 -19 -28 -19 -23 0 5 -6 4 -12 -2 -19 -15 -167 -25 -247 -17
-66 7 -69 8 -75 36 -3 16 -11 29 -18 29 -27 0 -39 19 -45 69 -9 84 -22 81 312
81 161 0 313 3 338 6 46 7 46 7 52 53 4 25 10 60 14 76 5 17 2 80 -5 140 -7
61 -13 134 -13 162 -1 47 -4 53 -25 59 -20 5 -25 14 -32 62 -8 51 -13 59 -41
72 -21 10 -33 23 -35 40 -2 19 -10 26 -33 30 -22 4 -34 14 -45 37 -8 18 -21
33 -28 33 -21 0 -92 25 -92 32 0 3 -7 14 -16 22 -13 13 -43 16 -175 16 l-160
0 -10 -30z m310 -358 c50 -46 51 -49 51 -105 0 -71 6 -69 -205 -65 l-160 3 -3
58 c-3 63 8 87 39 87 11 0 19 7 19 16 0 8 5 24 10 35 9 17 22 19 104 19 l93 0
52 -48z"/>
<path d="M15754 4176 c-4 -18 -17 -26 -60 -36 -48 -12 -57 -18 -69 -47 -10
-22 -21 -33 -35 -33 -11 0 -23 -8 -26 -17 -12 -38 -30 -69 -56 -101 -28 -33
-28 -33 -28 -182 0 -159 8 -200 39 -200 12 0 20 -9 24 -29 4 -18 14 -32 27
-36 11 -3 20 -11 20 -16 0 -6 4 -8 9 -5 5 3 12 -5 15 -18 5 -19 15 -26 47 -31
22 -4 43 -13 46 -21 6 -17 66 -44 98 -44 12 0 40 -16 61 -35 21 -19 47 -35 59
-35 33 0 52 -21 59 -65 9 -61 -1 -84 -40 -91 -18 -3 -38 -12 -45 -20 -16 -20
-42 -17 -61 5 -10 12 -36 21 -75 26 -50 5 -61 10 -75 35 -14 24 -24 29 -70 34
-75 8 -121 -4 -128 -33 -5 -23 -18 -34 -51 -44 -19 -6 -34 -106 -19 -121 6 -6
10 -18 10 -27 0 -10 14 -27 30 -39 17 -12 30 -30 30 -40 0 -23 24 -37 78 -46
31 -5 42 -12 46 -30 11 -43 35 -47 250 -41 111 3 211 8 223 12 12 4 24 18 27
31 4 16 14 24 29 24 30 0 43 10 50 40 4 16 17 30 36 36 22 9 30 19 33 40 3 27
7 29 57 36 66 8 78 4 86 -30 4 -17 17 -32 38 -42 20 -9 33 -24 35 -38 3 -16
12 -25 34 -29 17 -3 33 -14 35 -23 3 -9 23 -27 45 -39 37 -19 55 -21 229 -21
176 0 190 1 209 20 11 11 20 24 20 28 0 10 68 32 98 32 15 0 22 7 24 28 2 19
12 31 35 41 33 14 43 35 43 87 0 16 11 45 25 64 21 28 25 45 25 100 0 58 -3
69 -25 88 -20 18 -25 31 -25 69 0 57 -7 69 -42 78 -21 5 -29 15 -34 40 -5 27
-11 34 -32 37 -18 2 -28 10 -32 28 -4 18 -15 27 -42 33 -25 6 -38 15 -42 31
-6 25 -54 46 -104 46 -24 0 -44 11 -76 40 -24 22 -48 40 -53 40 -6 0 -17 7
-24 16 -11 14 -10 19 12 38 14 12 29 34 33 49 5 23 12 27 41 27 18 0 37 -4 40
-10 3 -5 14 -10 24 -10 10 0 25 -9 32 -20 11 -16 29 -21 90 -26 42 -4 97 -4
123 0 61 9 86 46 86 126 0 60 -27 140 -48 140 -20 0 -73 43 -83 67 -6 16 -18
23 -46 25 -30 2 -39 8 -41 24 -4 29 -26 34 -155 34 -107 0 -177 -16 -177 -39
0 -6 -20 -16 -44 -22 -37 -9 -45 -15 -48 -37 -2 -20 -11 -29 -35 -35 -23 -7
-34 -17 -38 -37 -4 -18 -14 -30 -30 -34 -20 -5 -24 -14 -30 -65 -8 -74 -28
-131 -49 -146 -24 -18 -22 -99 4 -125 11 -11 25 -20 30 -20 6 0 10 -11 10 -24
0 -45 22 -85 58 -108 19 -12 51 -37 70 -55 19 -19 44 -33 58 -33 13 0 28 -9
33 -19 11 -20 60 -41 96 -41 12 0 31 -13 43 -30 13 -16 29 -30 37 -30 9 0 23
-4 33 -9 9 -5 24 -12 32 -14 9 -3 21 -27 29 -56 15 -58 5 -81 -33 -81 -12 0
-27 -9 -34 -20 -14 -23 -64 -27 -81 -6 -6 8 -41 19 -76 26 -36 7 -65 16 -65
21 0 17 -90 49 -138 49 -47 0 -51 -2 -61 -30 -7 -23 -16 -30 -36 -30 -14 0
-37 -7 -51 -16 -23 -16 -26 -16 -48 5 -21 20 -23 30 -22 102 1 77 -1 82 -26
100 -15 11 -29 33 -33 49 -4 16 -15 32 -26 35 -11 4 -26 22 -34 41 -8 19 -25
39 -39 45 -13 6 -26 20 -29 30 -3 13 -18 21 -46 25 -26 4 -42 13 -46 24 -7 23
-68 47 -137 55 -52 6 -58 9 -58 30 0 16 -10 27 -35 39 -28 14 -35 23 -35 46 0
17 5 30 10 30 6 0 10 7 10 15 0 27 60 55 118 55 55 0 124 -27 140 -55 7 -13
26 -15 101 -13 l93 3 14 40 c7 22 18 41 24 43 6 2 6 10 1 20 -5 9 -12 40 -16
67 -11 86 -14 95 -35 95 -13 0 -26 12 -37 34 -16 35 -36 46 -86 46 -19 0 -38
10 -55 30 l-26 30 -133 0 c-131 0 -133 0 -139 -24z"/>
<path d="M10478 4132 c-14 -2 -42 -18 -61 -37 -31 -30 -42 -34 -98 -37 l-64
-3 -8 -60 c-12 -84 0 -202 21 -210 9 -3 40 -3 69 1 42 5 53 10 53 24 0 10 7
26 16 35 14 14 40 16 182 13 121 -2 166 -6 170 -15 2 -7 10 -13 17 -13 7 0 27
-19 44 -42 38 -51 44 -121 12 -138 -11 -6 -87 -10 -175 -10 -164 0 -186 -6
-186 -51 0 -16 -7 -19 -44 -19 -71 0 -107 -11 -118 -36 -6 -13 -20 -24 -32
-26 -18 -3 -22 -13 -29 -65 -8 -54 -12 -63 -37 -73 -15 -6 -31 -21 -34 -33 -3
-12 -6 -86 -6 -164 l0 -142 43 -45 c91 -96 124 -135 130 -150 4 -9 13 -16 20
-16 8 0 20 -7 27 -15 10 -12 39 -15 141 -15 134 0 144 3 169 50 6 12 26 21 56
26 34 5 48 12 56 30 12 26 39 38 66 29 19 -6 62 -68 62 -89 0 -7 8 -20 18 -29
25 -23 134 -24 152 -2 7 8 18 15 25 15 7 0 15 14 19 31 9 44 7 1032 -2 1045
-4 6 -14 13 -24 17 -9 3 -22 18 -30 34 -7 15 -25 34 -41 41 -15 7 -30 24 -33
36 -5 19 -16 26 -66 36 -52 11 -61 17 -70 42 -9 25 -15 28 -56 29 -203 3 -331
4 -354 1z m360 -790 c14 -18 17 -159 3 -180 -4 -8 -26 -16 -49 -19 -30 -4 -42
-11 -46 -27 -3 -14 -19 -25 -45 -33 -48 -15 -144 -17 -169 -4 -9 5 -25 12 -34
15 -33 10 -38 210 -5 243 21 21 106 31 227 25 79 -3 108 -8 118 -20z"/>
<path d="M11711 4131 c-41 -6 -46 -9 -53 -41 -5 -19 -14 -45 -20 -57 -6 -13
-8 -46 -4 -85 3 -35 5 -67 5 -73 -6 -42 -8 -982 -3 -994 4 -9 9 -25 11 -35 9
-47 31 -56 130 -56 51 0 101 4 111 9 9 5 25 12 35 15 16 5 17 35 17 441 0 422
1 436 20 455 11 11 26 20 34 20 8 0 17 11 20 25 4 14 17 30 29 34 12 5 29 20
36 34 17 32 37 37 136 36 116 -2 137 -8 155 -47 8 -18 25 -35 38 -38 15 -4 22
-14 23 -33 1 -14 3 -223 5 -464 1 -241 6 -446 9 -456 3 -11 19 -21 37 -25 47
-9 159 -7 200 4 l37 11 3 476 c4 560 4 560 -25 569 -30 9 -37 22 -37 75 0 48
-13 69 -43 69 -11 0 -22 11 -28 30 -9 24 -17 30 -40 30 -39 0 -96 29 -102 51
-4 15 -16 19 -59 21 -49 1 -71 1 -166 -1 -26 -1 -37 -8 -50 -31 -13 -23 -27
-32 -56 -37 -30 -5 -54 -21 -104 -70 -53 -51 -72 -63 -98 -63 l-31 0 -5 85
c-3 56 -9 90 -19 99 -17 16 -88 24 -148 17z"/>
<path d="M3335 3993 c-45 -7 -65 -30 -66 -77 0 -23 -4 -61 -7 -86 -6 -36 -11
-45 -32 -50 -16 -4 -26 -14 -28 -29 -3 -16 -15 -28 -43 -39 -29 -11 -39 -21
-39 -37 0 -19 -7 -24 -47 -30 -78 -11 -92 -16 -98 -36 -4 -10 -14 -19 -24 -19
-9 0 -23 -6 -29 -12 -10 -10 -73 -13 -245 -13 -244 0 -311 9 -322 45 -7 21
-34 30 -93 30 -39 0 -45 3 -55 30 -8 20 -18 30 -33 30 -24 0 -54 29 -54 52 0
9 -11 19 -25 22 -19 5 -26 15 -30 44 -8 46 -25 83 -46 99 -9 7 -22 26 -29 43
l-13 31 -130 -3 -131 -3 -12 -49 c-8 -32 -10 -56 -3 -67 5 -10 9 -37 9 -61 0
-63 9 -85 39 -97 18 -8 30 -24 38 -51 14 -44 120 -156 156 -165 12 -3 30 -19
39 -35 11 -20 27 -31 52 -35 25 -5 36 -13 38 -29 2 -17 13 -23 63 -31 43 -7
68 -18 89 -37 16 -15 45 -30 65 -34 113 -18 115 -19 122 -44 4 -14 8 -200 9
-415 1 -214 5 -403 9 -420 l6 -30 200 -3 c194 -3 201 -2 218 19 9 12 17 17 17
13 0 -5 9 2 20 16 19 24 20 44 21 410 1 212 4 399 8 415 6 29 8 30 69 33 55 3
64 6 73 26 11 24 49 40 123 51 26 4 48 17 65 36 16 19 35 29 53 29 23 0 29 6
36 33 6 25 14 33 36 35 20 3 30 11 38 32 6 18 20 32 38 38 21 8 29 18 32 38 2
21 10 30 28 34 17 4 26 14 28 30 5 31 31 70 48 70 7 0 18 9 24 20 17 33 80 24
80 -12 0 -26 29 -80 51 -96 11 -7 19 -21 19 -31 0 -21 27 -48 55 -53 13 -2 21
-12 23 -29 2 -21 10 -28 33 -33 20 -4 33 -13 36 -26 6 -23 70 -60 103 -60 12
0 24 -9 30 -24 7 -20 20 -27 67 -36 40 -8 64 -19 79 -36 15 -19 35 -27 75 -33
65 -8 79 -16 79 -42 0 -12 10 -23 25 -29 l26 -10 -1 -122 c-1 -68 -1 -175 -1
-238 0 -63 -2 -171 -4 -240 -2 -76 1 -146 8 -177 l12 -53 198 0 c179 0 198 2
204 17 3 10 19 32 36 50 18 19 26 36 22 44 -5 6 -9 165 -11 353 -3 286 -1 344
11 363 8 12 15 31 15 41 0 27 20 42 56 42 51 0 94 11 94 25 0 22 28 37 82 44
45 5 55 10 66 34 7 15 21 27 31 27 37 0 91 30 97 54 4 17 15 26 38 30 23 4 35
14 43 35 7 19 19 30 34 33 18 2 25 11 29 33 4 22 12 31 36 38 29 8 32 14 37
60 4 28 10 54 15 59 5 5 33 8 63 6 l54 -3 10 -55 c10 -50 14 -56 43 -65 26 -7
32 -14 32 -37 0 -22 7 -31 35 -42 23 -10 35 -22 35 -34 0 -20 18 -32 50 -32
11 0 19 -10 23 -29 5 -25 14 -31 60 -45 36 -10 60 -24 71 -41 12 -18 26 -25
49 -26 54 -2 81 -14 95 -42 12 -25 18 -27 75 -28 132 -2 146 -22 147 -211 0
-69 3 -133 6 -142 7 -17 39 -22 48 -7 3 5 21 12 40 15 35 7 46 29 46 96 0 40
20 90 36 90 8 0 20 -11 26 -25 6 -14 15 -25 20 -25 9 0 43 -73 52 -112 4 -20
13 -28 27 -28 33 0 59 -19 59 -44 0 -25 -17 -36 -54 -36 -18 0 -25 -10 -39
-57 -10 -31 -28 -66 -40 -78 -12 -12 -27 -30 -33 -40 -18 -32 -42 -11 -49 42
-16 128 -15 127 -69 136 -27 4 -55 6 -63 3 -10 -4 -13 -49 -13 -220 0 -118 4
-226 10 -240 l10 -26 197 0 c194 0 199 1 228 24 l30 24 5 421 c5 459 3 441 62
441 16 0 42 13 64 33 28 24 52 34 98 42 51 8 62 14 64 31 2 15 12 24 32 27 16
4 43 21 62 39 18 19 48 40 66 47 17 7 32 18 32 23 0 5 20 28 45 53 25 24 48
56 51 73 4 18 15 34 30 41 14 6 24 19 24 30 0 41 34 131 52 137 14 4 18 16 18
54 0 48 0 48 -44 65 -34 13 -69 16 -165 13 -139 -3 -141 -4 -141 -85 0 -46 -2
-52 -22 -55 -18 -2 -24 -11 -28 -38 -3 -23 -12 -38 -26 -44 -12 -5 -31 -24
-44 -43 -15 -22 -31 -33 -46 -33 -17 0 -24 -6 -24 -20 0 -22 -24 -35 -80 -44
-20 -4 -46 -18 -62 -35 -27 -28 -32 -29 -155 -36 -71 -4 -191 -5 -267 -1 -136
7 -139 8 -166 36 -28 30 -41 34 -123 45 -32 4 -50 12 -54 23 -8 23 -44 52 -65
52 -11 0 -20 11 -24 28 -4 15 -12 32 -18 37 -24 20 -56 74 -56 93 0 35 -26 83
-52 96 -30 16 -478 32 -581 21 l-65 -7 -7 -77 c-6 -69 -10 -79 -40 -106 -17
-16 -35 -42 -39 -57 -3 -16 -13 -28 -22 -28 -16 0 -63 -30 -98 -62 -11 -10
-31 -18 -44 -18 -27 0 -89 -34 -110 -59 -10 -13 -48 -15 -260 -16 -136 0 -259
3 -273 7 -16 5 -29 17 -33 32 -5 20 -14 25 -63 30 -78 10 -93 15 -93 32 0 8
-13 20 -30 25 -16 6 -30 14 -30 18 0 4 -11 13 -25 19 -14 6 -25 18 -25 26 0 7
-6 19 -14 26 -8 6 -16 24 -18 38 -2 16 -12 31 -25 37 -16 7 -23 21 -28 58 -11
75 -9 75 -330 80 -154 3 -293 3 -310 0z m-641 -869 c3 -9 6 -34 6 -57 0 -23 3
-58 6 -78 6 -35 8 -37 68 -51 54 -13 61 -18 64 -40 3 -25 0 -26 -57 -33 -34
-4 -63 -11 -66 -15 -3 -5 -8 -45 -12 -89 -7 -94 -12 -106 -46 -97 -22 5 -26
13 -32 64 -5 47 -13 66 -39 95 -18 21 -40 37 -49 37 -32 0 -47 13 -47 40 0 28
15 40 49 40 10 0 31 16 48 35 23 26 32 48 38 92 4 32 12 61 19 65 19 13 44 9
50 -8z m1910 -36 c8 -13 18 -35 21 -50 4 -15 13 -29 21 -32 8 -3 14 -14 14
-25 0 -25 37 -61 63 -61 33 0 17 -42 -20 -52 -25 -6 -33 -15 -38 -41 -4 -17
-15 -41 -25 -52 -10 -11 -21 -31 -25 -45 -9 -31 -24 -50 -39 -50 -14 0 -36 56
-36 92 0 59 -12 88 -36 88 -30 0 -49 32 -34 60 6 11 19 20 30 20 25 0 40 29
40 80 0 39 23 90 41 90 5 0 15 -10 23 -22z"/>
</g>
</svg>
